<svg width="1920" height="1080" fill="none" xmlns="http://www.w3.org/2000/svg"><circle cx="1919.5" cy=".5" r="359.5" stroke="#FB6542" stroke-width="150"/><circle cx="247" cy="1080" r="287" stroke="#FB6542" stroke-width="100"/><path d="M1427.38-28.418c-21.54 36.815-83.48 37.943-68.66 131.823 16.65 105.217-79.77 150.441-145.63 124.378-65.87-26.063-61.24-122.698-186.41-125.67C898.717 99.077 871.796-22.464 871.796-22.464" stroke="#FB6542" stroke-width="2" stroke-miterlimit="10"/><path d="M1330.94-56.72c0 46.643-36.18 80.202-23.19 160.007 12.99 79.805-45.39 89.137-68.65 79.805-48.25-19.359-57.52-122.86-135.44-129.59-58.58-5.032-137.315 35.006-179.033-55.857" stroke="#FB6542" stroke-width="2" stroke-miterlimit="10"/><path d="M1291.98-20.956c8.15 13.076-13.69 60.814-44.52 67.348-24.35 5.16-64.94-56.173-148.42-18.971-29.69 13.243-149.346 17.164-125.226-55.857m276.426 183.234c13.83 0 25.04-16.506 25.04-36.867 0-20.361-11.21-36.867-25.04-36.867-13.83 0-25.04 16.506-25.04 36.867 0 20.361 11.21 36.867 25.04 36.867z" stroke="#FB6542" stroke-width="2" stroke-miterlimit="10"/><rect x="145.414" y="324.449" width="41" height="41" rx="3" transform="rotate(15 145.414 324.449)" fill="#131212" fill-opacity=".01" stroke="#fff" stroke-width="4"/><rect x="960" y="878.828" width="61" height="61" rx="3" transform="rotate(45 960 878.828)" fill="#131212" fill-opacity=".01" stroke="#fff" stroke-width="4"/><rect x="1556" y="392.414" width="23" height="23" rx="2" transform="rotate(45 1556 392.414)" fill="#131212" fill-opacity=".01" stroke="#fff" stroke-width="2"/></svg>