<svg width="354" height="99" fill="none" xmlns="http://www.w3.org/2000/svg"><path d="M0 0h14v14H0zm0 57h14v14H0zm0-29h14v14H0zm0 57h14v14H0zM113 0h14v14h-14zm0 57h14v14h-14zm0-29h14v14h-14zm0 57h14v14h-14zM57 0h14v14H57zm0 57h14v14H57zm0-29h14v14H57zm0 57h14v14H57zM170 0h14v14h-14zm0 57h14v14h-14zm0-29h14v14h-14zm0 57h14v14h-14zm57-85h14v14h-14zm85 0h14v14h-14zm-85 57h14v14h-14zm85 0h14v14h-14zm-85-29h14v14h-14zm85 0h14v14h-14zm-85 57h14v14h-14zm85 0h14v14h-14zM28 0h14v14H28zm0 57h14v14H28zm0-29h14v14H28zm0 57h14v14H28zM142 0h14v14h-14zm0 57h14v14h-14zm0-29h14v14h-14zm0 57h14v14h-14zM85 0h14v14H85zm0 57h14v14H85zm0-29h14v14H85zm0 57h14v14H85zM198 0h14v14h-14zm85 0h14v14h-14zm-85 57h14v14h-14zm85 0h14v14h-14zm-85-29h14v14h-14zm85 0h14v14h-14zm-85 57h14v14h-14zm85 0h14v14h-14zM255 0h14v14h-14zm85 0h14v14h-14zm-85 57h14v14h-14zm85 0h14v14h-14zm-85-29h14v14h-14zm85 0h14v14h-14zm-85 57h14v14h-14zm85 0h14v14h-14z" opacity=".3" fill="#fff"/></svg>